<svg xmlns="http://www.w3.org/2000/svg" version="1.1" xmlns:xlink="http://www.w3.org/1999/xlink" xmlns:svgjs="http://svgjs.com/svgjs" width="11" height="16"><svg width="11" height="16" viewBox="0 0 11 16" fill="none" xmlns="http://www.w3.org/2000/svg">
<path d="M0.463088 6.61061C0.463088 6.61061 0.525498 6.88803 0.62591 7.03395C0.704075 7.14754 0.875571 7.28361 0.875571 7.28361C0.875571 7.28361 0.786716 6.84913 0.951555 6.67574C1.08364 6.53681 1.22661 6.52378 1.41831 6.52378C1.61001 6.52378 1.88507 6.67574 1.88507 6.67574C1.88507 6.67574 1.31037 6.25268 1.03839 5.8942C0.862628 5.66252 0.772575 5.52124 0.658475 5.25376C0.536228 4.96718 0.485775 4.79282 0.452233 4.48307C0.413346 4.12395 0.411178 3.90567 0.517362 3.56041C0.632553 3.18587 0.758045 2.97246 1.02015 2.68117C1.3145 2.35404 1.53036 2.18713 1.9358 2.01603C2.28278 1.86961 2.51804 1.83742 2.89457 1.84535C3.17053 1.85116 3.58928 1.97561 3.58928 1.97561C3.58928 1.97561 3.68294 2.22238 3.70868 2.38809C3.73472 2.5557 3.71953 2.82228 3.71953 2.82228M0.463088 6.05702C0.463088 6.05702 0.538672 5.69889 0.658475 5.50342C0.785359 5.2964 0.900293 5.22382 1.10352 5.09094C1.38575 4.90641 1.57587 4.82736 1.88507 4.67846C2.13959 4.55589 2.29377 4.50843 2.53636 4.36367C2.82757 4.18988 3.00265 4.0933 3.23107 3.84264C3.39738 3.66012 3.58928 3.3216 3.58928 3.3216M3.6958 2.97603L3.6638 3.16803M0.452233 6.24003V6.44803" stroke="#010409" stroke-width="0.2" stroke-linecap="round" stroke-linejoin="round"></path>
<path d="M7.9383 13.135C7.9383 13.135 7.67813 13.5511 7.42381 13.7307C7.22583 13.8704 6.85334 13.9925 6.85334 13.9925C6.85334 13.9925 7.24537 13.3355 7.05367 12.9566C6.90006 12.653 6.65868 12.5484 6.32548 12.4368C5.99229 12.3251 5.4311 12.4127 5.4311 12.4127C5.4311 12.4127 6.66134 12.0574 7.3301 11.6311C7.76228 11.3556 7.99606 11.1776 8.34065 10.8077C8.70984 10.4114 8.94136 10.1658 9.16904 9.68004C9.43301 9.11688 9.49646 8.62513 9.5007 8.00005C9.50529 7.32195 9.41733 6.96394 9.12104 6.33604C8.7883 5.6309 8.50019 5.20338 7.88904 4.68804C7.36601 4.24702 6.99582 4.12649 6.33704 3.92004C5.85419 3.76873 5.03909 3.75253 5.03909 3.75253C5.03909 3.75253 4.74136 4.10052 4.606 4.35584C4.4691 4.61408 4.34971 5.0578 4.34971 5.0578M8.24102 12.2319C8.24102 12.2319 8.30547 11.6036 8.20413 11.215C8.09679 10.8033 7.93671 10.618 7.65613 10.2828C7.2665 9.81734 6.97925 9.57762 6.52326 9.15457C6.14789 8.80633 5.90585 8.63908 5.56337 8.26159C5.15223 7.80843 4.90074 7.54887 4.64078 7.00688C4.4515 6.61226 4.30308 5.94823 4.30308 5.94823M4.30308 5.32804L4.28904 5.71204M8.14711 12.5747L8.06401 12.8226" stroke="#010409" stroke-width="0.2" stroke-linecap="round" stroke-linejoin="round"></path>
<path d="M2.07129 15.0333C2.07129 15.0333 2.25656 15.3136 2.42651 15.4331C2.5588 15.526 2.80078 15.6052 2.80078 15.6052C2.80078 15.6052 2.52014 15.1624 2.62298 14.9027C2.70539 14.6946 2.85318 14.6209 3.05879 14.5415C3.2644 14.462 3.62425 14.5157 3.62425 14.5157C3.62425 14.5157 2.82738 14.287 2.38274 14.004C2.0954 13.8211 1.93854 13.7025 1.70206 13.4545C1.4487 13.1889 1.32021 13.0173 1.1521 12.6893C0.957202 12.309 0.861764 12.0689 0.828379 11.6438C0.792162 11.1826 0.803479 10.8782 0.960348 10.448C1.13652 9.96493 1.30247 9.70095 1.66435 9.34404C1.97405 9.03859 2.23929 8.91268 2.64652 8.76536C2.94499 8.65739 3.44721 8.6212 3.44721 8.6212C3.44721 8.6212 3.65293 8.85477 3.75123 9.02702C3.85065 9.20123 3.94809 9.5018 3.94809 9.5018M1.83514 14.4222C1.83514 14.4222 1.76344 13.9955 1.80856 13.7301C1.85634 13.449 1.94866 13.3212 2.10995 13.0903C2.33395 12.7697 2.50415 12.6036 2.77227 12.3111C2.99298 12.0703 3.13811 11.954 3.33655 11.6936C3.57476 11.3811 3.72135 11.2019 3.85942 10.8306C3.95995 10.5602 4.02137 10.107 4.02137 10.107M4.00035 9.68004L4.02137 9.92004M1.91147 14.6543L1.9763 14.8221" stroke="#010409" stroke-width="0.2" stroke-linecap="round" stroke-linejoin="round"></path>
<circle cx="4.55604" cy="0.694708" r="0.644708" stroke="#DB2626" stroke-width="0.1"></circle>
<circle cx="5.44681" cy="2.08414" r="0.471031" stroke="#266EDB" stroke-width="0.1"></circle>
<circle cx="3.11272" cy="2.52922" r="0.227951" fill="#010409"></circle>
<circle cx="5.59123" cy="4.78703" r="0.227951" fill="#010409"></circle>
<circle cx="3.19865" cy="9.41118" r="0.227951" fill="#010409"></circle>
<circle cx="5.48888" cy="14.6106" r="0.384193" stroke="#266EDB" stroke-width="0.1"></circle>
<circle cx="4.36103" cy="15.6527" r="0.297354" stroke="#DB2626" stroke-width="0.1"></circle>
</svg><style>@media (prefers-color-scheme: light) { :root { filter: none; } }
</style></svg>